<?xml version="1.0" encoding="UTF-8"?>
<svg width="32" height="32" viewBox="0 0 32 32" version="1.1" xmlns="http://www.w3.org/2000/svg">
  <path d="M16.672.284l15.044 15.044a.95.95 0 0 1 0 1.344L16.672 31.716a.95.95 0 0 1-1.344 0L.284 16.672a.95.95 0 0 1 0-1.344L15.328.284a.95.95 0 0 1 1.344 0zM4.94 17.217h6.199c.187 0 .342-.06.463-.182a.628.628 0 0 0 .183-.464v-1.114c0-.206-.056-.37-.169-.492-.112-.122-.271-.182-.477-.182h-6.2a.628.628 0 0 0-.463.182.664.664 0 0 0-.183.492v1.114c0 .188.061.342.183.464a.628.628 0 0 0 .464.182zm15.92 0h6.198c.188 0 .342-.06.464-.182a.628.628 0 0 0 .183-.464v-1.114c0-.206-.057-.37-.169-.492-.112-.122-.271-.182-.478-.182H20.86a.628.628 0 0 0-.463.182.664.664 0 0 0-.183.492v1.114a.628.628 0 0 0 .646.646zm-3.644-6.077v-6.2a.628.628 0 0 0-.182-.463.628.628 0 0 0-.464-.183h-1.114c-.206 0-.37.057-.492.169-.122.112-.182.271-.182.478v6.199c0 .187.06.342.182.463a.664.664 0 0 0 .492.183h1.114a.628.628 0 0 0 .646-.646zm0 15.92v-6.2a.628.628 0 0 0-.182-.463.628.628 0 0 0-.464-.183h-1.114c-.206 0-.37.056-.492.169-.122.112-.182.271-.182.477v6.2c0 .187.06.341.182.463a.664.664 0 0 0 .492.183h1.114c.188 0 .342-.061.464-.183a.628.628 0 0 0 .182-.464z" fill="#000" fill-rule="nonzero"/>
</svg>
