<svg width="32" height="32" xmlns="http://www.w3.org/2000/svg"><path d="M16 32C7.163 32 0 24.837 0 16S7.163 0 16 0s16 7.163 16 16-7.163 16-16 16zm-6.012-7.813h2.362a.49.49 0 0 0 .347-.13c.094-.088.14-.2.14-.338v-6.825l2.007 3.712c.187.288.406.431.656.431h1.012c.276 0 .494-.143.657-.43l2.025-3.713v6.825a.45.45 0 0 0 .14.328.45.45 0 0 0 .329.14h2.38a.49.49 0 0 0 .348-.13c.093-.088.14-.2.14-.338V11.55a.471.471 0 0 0-.14-.347.471.471 0 0 0-.347-.14h-2.119a.701.701 0 0 0-.675.412l-3.244 5.775-3.225-5.775a.701.701 0 0 0-.675-.412H9.988a.471.471 0 0 0-.347.14.471.471 0 0 0-.141.347v12.169c0 .137.047.25.14.337a.49.49 0 0 0 .348.131zM9.723 7.22a.04.04 0 0 1-.028-.011.037.037 0 0 1-.012-.028V6.166a.04.04 0 0 1 .012-.03.04.04 0 0 1 .028-.011H9.9c.026 0 .045.011.056.034l.269.482.27-.482a.058.058 0 0 1 .057-.034h.176a.04.04 0 0 1 .029.012.04.04 0 0 1 .012.029V7.18c0 .011-.004.02-.012.028a.04.04 0 0 1-.029.01h-.198a.037.037 0 0 1-.028-.011.037.037 0 0 1-.011-.027v-.57l-.17.31c-.013.024-.03.036-.054.036h-.084c-.021 0-.04-.012-.055-.036l-.167-.31v.57c0 .011-.004.02-.012.028a.04.04 0 0 1-.029.01h-.197zm1.197 0a.031.031 0 0 1-.022-.01.031.031 0 0 1-.01-.023l.001-.014.364-1.002c.01-.03.031-.045.063-.045h.243c.032 0 .052.015.063.045l.364 1.002a.047.047 0 0 1 .002.014.031.031 0 0 1-.01.023.031.031 0 0 1-.023.01h-.203a.054.054 0 0 1-.054-.035l-.056-.151h-.41l-.055.151a.054.054 0 0 1-.054.035h-.203zm.378-.42h.279l-.14-.399-.139.398zm.979.42a.04.04 0 0 1-.03-.011.037.037 0 0 1-.011-.028v-.8h-.275a.04.04 0 0 1-.029-.011.037.037 0 0 1-.012-.028v-.175a.04.04 0 0 1 .012-.03.04.04 0 0 1 .029-.011h.848a.04.04 0 0 1 .03.012.04.04 0 0 1 .011.029v.175c0 .011-.004.02-.012.028a.04.04 0 0 1-.029.01h-.275v.8c0 .012-.004.022-.011.029a.04.04 0 0 1-.03.01h-.216zm.992 0a.04.04 0 0 1-.03-.011.037.037 0 0 1-.01-.028v-.8h-.276a.04.04 0 0 1-.029-.011.037.037 0 0 1-.011-.028v-.175a.04.04 0 0 1 .011-.03.04.04 0 0 1 .03-.011h.848a.04.04 0 0 1 .028.012.04.04 0 0 1 .012.029v.175c0 .011-.004.02-.012.028a.04.04 0 0 1-.028.01h-.275v.8c0 .012-.004.022-.012.029a.04.04 0 0 1-.03.01h-.216zm.75 0a.038.038 0 0 1-.028-.011.038.038 0 0 1-.011-.028V6.166a.04.04 0 0 1 .01-.03.037.037 0 0 1 .029-.011h.214a.04.04 0 0 1 .029.012.04.04 0 0 1 .011.029v.37h.37v-.37a.04.04 0 0 1 .01-.03.04.04 0 0 1 .03-.011h.212a.04.04 0 0 1 .03.012.04.04 0 0 1 .01.029V7.18c0 .011-.003.02-.01.028a.04.04 0 0 1-.03.01h-.212a.04.04 0 0 1-.03-.01.037.037 0 0 1-.01-.028v-.383h-.37v.383c0 .011-.003.02-.011.028a.04.04 0 0 1-.03.01h-.213zm1.168 0a.037.037 0 0 1-.027-.012.037.037 0 0 1-.012-.027V6.164c0-.011.004-.02.012-.028a.039.039 0 0 1 .027-.011h.224c.011 0 .02.004.028.01.007.008.011.018.011.03V7.18a.039.039 0 0 1-.04.039h-.223zm.515 0a.037.037 0 0 1-.028-.012.037.037 0 0 1-.011-.027V6.166a.04.04 0 0 1 .01-.03.037.037 0 0 1 .029-.011h.737a.04.04 0 0 1 .029.012.04.04 0 0 1 .012.029v.154c0 .012-.004.021-.012.028a.04.04 0 0 1-.029.011h-.494v.199h.46a.04.04 0 0 1 .029.012.04.04 0 0 1 .011.028v.143a.04.04 0 0 1-.011.029.04.04 0 0 1-.03.011h-.459v.203h.507a.04.04 0 0 1 .028.012.04.04 0 0 1 .012.029v.155c0 .011-.004.02-.012.028a.04.04 0 0 1-.028.01h-.75zm1.428.015a.517.517 0 0 1-.348-.107c-.084-.072-.126-.18-.126-.324v-.637a.04.04 0 0 1 .011-.03.037.037 0 0 1 .028-.011h.214a.04.04 0 0 1 .03.012.04.04 0 0 1 .011.029V6.8c0 .065.015.113.046.145.03.033.075.049.132.049.057 0 .101-.017.132-.05.03-.032.046-.08.046-.144v-.634a.04.04 0 0 1 .012-.03.04.04 0 0 1 .029-.011h.212a.04.04 0 0 1 .03.012.04.04 0 0 1 .011.029v.637c0 .144-.042.252-.125.324a.512.512 0 0 1-.345.107zm1.454 0a.527.527 0 0 1-.35-.107c-.085-.072-.13-.178-.136-.318a4.155 4.155 0 0 1 0-.27.413.413 0 0 1 .137-.318.519.519 0 0 1 .35-.112c.144 0 .26.038.347.112.087.075.133.18.137.318a4.315 4.315 0 0 1 0 .27c-.005.14-.05.246-.135.318a.524.524 0 0 1-.35.107zm0-.234a.174.174 0 0 0 .13-.05c.032-.032.05-.082.052-.15a4.294 4.294 0 0 0 0-.256c-.002-.068-.02-.118-.052-.151a.174.174 0 0 0-.13-.05.176.176 0 0 0-.13.05c-.033.033-.05.083-.052.15a3.825 3.825 0 0 0 0 .257c.002.068.019.118.051.15.032.034.076.05.131.05zm1.122.234a.527.527 0 0 1-.354-.11.415.415 0 0 1-.136-.315 4.5 4.5 0 0 1 0-.286.393.393 0 0 1 .136-.305.536.536 0 0 1 .354-.109c.1 0 .187.017.262.049a.421.421 0 0 1 .17.124c.04.05.06.102.062.155 0 .01-.003.018-.01.025a.033.033 0 0 1-.024.01h-.243a.045.045 0 0 1-.024-.006.061.061 0 0 1-.016-.016.184.184 0 0 0-.06-.075.19.19 0 0 0-.117-.031c-.12 0-.183.062-.187.187a4.155 4.155 0 0 0 0 .27c.004.133.067.199.19.199.06 0 .109-.015.144-.045.036-.03.053-.076.053-.138V6.79h-.139a.04.04 0 0 1-.029-.012.04.04 0 0 1-.011-.029v-.121a.04.04 0 0 1 .011-.03.04.04 0 0 1 .03-.011h.396a.04.04 0 0 1 .029.012.04.04 0 0 1 .012.029v.18c0 .09-.02.166-.062.23a.394.394 0 0 1-.174.147.633.633 0 0 1-.263.05zm.711-.015a.037.037 0 0 1-.027-.012.037.037 0 0 1-.012-.027V6.166a.04.04 0 0 1 .011-.03.037.037 0 0 1 .028-.011h.738a.04.04 0 0 1 .029.012.04.04 0 0 1 .011.029v.154c0 .012-.004.021-.011.028a.04.04 0 0 1-.03.011h-.493v.199h.46a.04.04 0 0 1 .028.012.04.04 0 0 1 .012.028v.143a.04.04 0 0 1-.012.029.04.04 0 0 1-.029.011h-.46v.203h.507a.04.04 0 0 1 .03.012.04.04 0 0 1 .01.029v.155c0 .011-.003.02-.01.028a.04.04 0 0 1-.03.01h-.75zm1.003 0a.037.037 0 0 1-.027-.012.037.037 0 0 1-.012-.027V6.166a.04.04 0 0 1 .011-.03.037.037 0 0 1 .028-.011h.43c.138 0 .245.031.323.094a.32.32 0 0 1 .116.264.329.329 0 0 1-.05.186.336.336 0 0 1-.14.119l.21.38a.039.039 0 0 1 .005.018.033.033 0 0 1-.01.023.03.03 0 0 1-.023.01h-.22a.065.065 0 0 1-.064-.042l-.172-.34h-.15v.343c0 .011-.004.02-.012.028a.04.04 0 0 1-.029.01h-.214zm.428-.611c.045 0 .08-.011.103-.034a.122.122 0 0 0 .035-.093.13.13 0 0 0-.035-.095c-.024-.024-.058-.036-.103-.036h-.173v.258h.173zM10.137 8.989a.674.674 0 0 1-.275-.052.437.437 0 0 1-.18-.135.317.317 0 0 1-.065-.179.041.041 0 0 1 .043-.04h.04c.024 0 .04.013.045.04a.26.26 0 0 0 .111.171.46.46 0 0 0 .28.073c.13 0 .225-.023.288-.07a.23.23 0 0 0 .095-.196.18.18 0 0 0-.046-.127.385.385 0 0 0-.133-.087 3.211 3.211 0 0 0-.264-.095 1.451 1.451 0 0 1-.245-.1.338.338 0 0 1-.13-.119.347.347 0 0 1-.044-.18c0-.07.019-.132.056-.188a.374.374 0 0 1 .162-.13.608.608 0 0 1 .252-.048c.1 0 .186.018.258.053a.41.41 0 0 1 .162.136c.037.055.056.11.059.166a.04.04 0 0 1-.011.028.04.04 0 0 1-.032.013h-.04a.052.052 0 0 1-.029-.01c-.01-.006-.015-.016-.016-.031a.232.232 0 0 0-.109-.168.42.42 0 0 0-.242-.066.447.447 0 0 0-.25.061.204.204 0 0 0-.092.183c0 .053.014.097.042.131.028.035.07.065.125.09.055.025.137.055.246.09.11.035.197.069.26.102.062.032.11.071.14.117a.308.308 0 0 1 .049.18.337.337 0 0 1-.136.284.608.608 0 0 1-.374.103zm1.284 0c-.348 0-.527-.187-.537-.56a5.462 5.462 0 0 1 0-.342c.006-.184.056-.323.15-.418a.521.521 0 0 1 .387-.142c.162 0 .29.047.385.142.095.095.145.234.15.418.004.081.005.138.005.17 0 .033-.001.09-.004.171-.01.374-.188.561-.536.561zm0-.122a.39.39 0 0 0 .291-.11c.072-.074.111-.187.117-.339a6.15 6.15 0 0 0 .004-.16l-.004-.16c-.006-.152-.045-.265-.118-.339a.39.39 0 0 0-.29-.11.39.39 0 0 0-.29.11c-.074.074-.113.187-.119.338a5.038 5.038 0 0 0 0 .321c.006.152.045.265.117.338a.39.39 0 0 0 .292.111zm.908.102a.044.044 0 0 1-.033-.012.044.044 0 0 1-.012-.033V7.592c0-.014.004-.025.012-.033a.044.044 0 0 1 .033-.012h.038c.014 0 .024.004.033.012a.044.044 0 0 1 .012.033v1.255h.7c.015 0 .027.004.035.012.008.008.012.02.012.035v.03a.042.042 0 0 1-.013.033.047.047 0 0 1-.033.012h-.784zm.966 0a.039.039 0 0 1-.028-.012.039.039 0 0 1-.012-.029l.004-.022.514-1.319c.01-.027.03-.04.059-.04h.069c.028 0 .048.013.059.04l.514 1.319.004.022c0 .011-.004.02-.013.029a.039.039 0 0 1-.028.012h-.04a.042.042 0 0 1-.03-.01.057.057 0 0 1-.015-.02l-.126-.326h-.72l-.125.325a.057.057 0 0 1-.016.02.042.042 0 0 1-.029.01h-.04zm.26-.478h.622l-.31-.8-.312.8zm1.207.478a.044.044 0 0 1-.033-.012.044.044 0 0 1-.012-.033v-1.33c0-.014.004-.025.012-.034a.042.042 0 0 1 .033-.013h.473a.52.52 0 0 1 .344.103c.082.07.123.172.123.307a.4.4 0 0 1-.079.26.396.396 0 0 1-.227.132l.327.557a.05.05 0 0 1 .006.022c0 .011-.004.02-.012.029a.039.039 0 0 1-.029.012h-.024c-.02 0-.036-.005-.046-.013a.161.161 0 0 1-.031-.042l-.323-.546h-.419v.556a.042.042 0 0 1-.013.033.047.047 0 0 1-.033.012h-.037zm.463-.723c.118 0 .206-.024.263-.072.058-.049.086-.12.086-.217 0-.096-.028-.168-.086-.216-.057-.048-.145-.072-.263-.072h-.38v.577h.38zm1.219.743a.674.674 0 0 1-.275-.052.437.437 0 0 1-.18-.135.317.317 0 0 1-.065-.179.041.041 0 0 1 .043-.04h.04c.024 0 .04.013.045.04a.26.26 0 0 0 .112.171.46.46 0 0 0 .28.073c.128 0 .224-.023.287-.07a.23.23 0 0 0 .095-.196.18.18 0 0 0-.046-.127.385.385 0 0 0-.133-.087 3.211 3.211 0 0 0-.264-.095 1.451 1.451 0 0 1-.245-.1.338.338 0 0 1-.13-.119.347.347 0 0 1-.044-.18c0-.07.02-.132.056-.188a.374.374 0 0 1 .162-.13.608.608 0 0 1 .252-.048c.1 0 .186.018.258.053a.41.41 0 0 1 .162.136c.037.055.056.11.059.166a.04.04 0 0 1-.011.028.04.04 0 0 1-.032.013h-.04a.052.052 0 0 1-.029-.01c-.01-.006-.015-.016-.016-.031a.232.232 0 0 0-.109-.168.42.42 0 0 0-.242-.066.447.447 0 0 0-.25.061.204.204 0 0 0-.092.183c0 .053.014.097.042.131.028.035.07.065.125.09.056.025.137.055.246.09.11.035.197.069.26.102.062.032.11.071.14.117a.308.308 0 0 1 .049.18.337.337 0 0 1-.136.284.608.608 0 0 1-.374.103zm.68-.02a.039.039 0 0 1-.028-.012.039.039 0 0 1-.012-.029l.004-.022.514-1.319c.01-.027.03-.04.059-.04h.069c.028 0 .048.013.059.04l.513 1.319.004.022c0 .011-.004.02-.012.029a.039.039 0 0 1-.028.012h-.04a.042.042 0 0 1-.03-.01.057.057 0 0 1-.015-.02l-.126-.326h-.72l-.125.325a.057.057 0 0 1-.016.02.042.042 0 0 1-.03.01h-.04zm.26-.478h.622l-.31-.8-.312.8zm1.207.478a.044.044 0 0 1-.033-.012.044.044 0 0 1-.012-.033V7.592c0-.014.004-.025.012-.033a.044.044 0 0 1 .033-.012h.038c.014 0 .025.004.033.012a.044.044 0 0 1 .012.033v1.332a.044.044 0 0 1-.012.033.044.044 0 0 1-.033.012h-.038zm.51 0a.044.044 0 0 1-.033-.012.044.044 0 0 1-.012-.033V7.592c0-.014.004-.025.012-.033a.044.044 0 0 1 .033-.012h.038c.014 0 .025.004.033.012a.044.044 0 0 1 .012.033v1.255h.7c.016 0 .027.004.035.012.008.008.012.02.012.035v.03a.042.042 0 0 1-.013.033.047.047 0 0 1-.033.012H19.1zm1.113 0a.044.044 0 0 1-.033-.012.044.044 0 0 1-.012-.033v-1.33c0-.014.004-.025.012-.034a.042.042 0 0 1 .033-.013h.792c.015 0 .026.004.035.012.008.008.012.02.012.035v.03a.042.042 0 0 1-.013.033.047.047 0 0 1-.034.012h-.709v.518h.664c.015 0 .027.004.035.012.008.008.012.02.012.034v.03a.042.042 0 0 1-.013.033.047.047 0 0 1-.034.013h-.664v.538h.725c.015 0 .027.004.035.012.008.008.012.02.012.035v.03a.042.042 0 0 1-.013.033.047.047 0 0 1-.034.012h-.808zm1.202 0a.044.044 0 0 1-.032-.012.044.044 0 0 1-.012-.033v-1.33c0-.014.004-.025.012-.034a.042.042 0 0 1 .032-.013h.474a.52.52 0 0 1 .343.103c.082.07.124.172.124.307a.4.4 0 0 1-.08.26.396.396 0 0 1-.227.132l.327.557a.05.05 0 0 1 .006.022c0 .011-.004.02-.012.029a.039.039 0 0 1-.028.012h-.025c-.02 0-.035-.005-.046-.013a.161.161 0 0 1-.031-.042l-.323-.546H21.5v.556a.042.042 0 0 1-.014.033.047.047 0 0 1-.033.012h-.037zm.463-.723c.118 0 .206-.024.263-.072.058-.049.087-.12.087-.217 0-.096-.029-.168-.087-.216-.057-.048-.145-.072-.263-.072h-.38v.577h.38z" fill="#000" fill-rule="evenodd"/></svg>
